<svg width="179" height="133" viewBox="0 0 179 133" fill="none" xmlns="http://www.w3.org/2000/svg">
<path d="M9.06049 114.645L21.9728 85.3941H30.1213L43.0754 114.645H34.4672L24.3546 89.4475H27.6141L17.5015 114.645H9.06049ZM16.1225 108.962L18.2537 102.861H32.545L34.6761 108.962H16.1225ZM55.7007 115.23C53.3049 115.23 50.9927 114.938 48.764 114.353C46.5632 113.74 44.7663 112.96 43.3734 112.013L46.0896 105.912C47.3989 106.747 48.9033 107.444 50.6026 108.001C52.3298 108.53 54.0431 108.795 55.7425 108.795C56.8847 108.795 57.804 108.698 58.5004 108.503C59.1969 108.28 59.6983 108.001 60.0048 107.667C60.3391 107.305 60.5062 106.887 60.5062 106.413C60.5062 105.745 60.1998 105.215 59.5869 104.825C58.974 104.435 58.1801 104.115 57.205 103.864C56.23 103.613 55.1435 103.363 53.9456 103.112C52.7756 102.861 51.5916 102.541 50.3937 102.151C49.2237 101.761 48.1511 101.259 47.1761 100.647C46.201 100.006 45.4071 99.184 44.7942 98.1811C44.1813 97.1503 43.8749 95.8549 43.8749 94.2948C43.8749 92.5398 44.3485 90.9518 45.2956 89.5311C46.2707 88.1103 47.7193 86.9681 49.6415 86.1045C51.5637 85.2409 53.9596 84.8091 56.8289 84.8091C58.7512 84.8091 60.6316 85.032 62.4702 85.4777C64.3367 85.8956 65.9943 86.5224 67.4429 87.3581L64.8939 93.5009C63.501 92.7487 62.122 92.1915 60.757 91.8294C59.3919 91.4394 58.0686 91.2444 56.7872 91.2444C55.645 91.2444 54.7257 91.3697 54.0292 91.6204C53.3327 91.8433 52.8313 92.1498 52.5249 92.5398C52.2184 92.9298 52.0652 93.3755 52.0652 93.877C52.0652 94.5177 52.3577 95.0331 52.9427 95.4231C53.5556 95.7852 54.3496 96.0917 55.3246 96.3424C56.3275 96.5653 57.414 96.8021 58.584 97.0528C59.7819 97.3035 60.9659 97.6239 62.1359 98.0139C63.3338 98.3761 64.4203 98.8775 65.3954 99.5183C66.3704 100.131 67.1504 100.953 67.7354 101.984C68.3483 102.987 68.6548 104.254 68.6548 105.786C68.6548 107.486 68.1672 109.06 67.1922 110.508C66.245 111.929 64.8103 113.071 62.8881 113.935C60.9938 114.798 58.5979 115.23 55.7007 115.23ZM79.873 108.168L79.4134 98.8914L91.9914 85.3941H101.101L88.5648 98.975L83.9682 103.781L79.873 108.168ZM72.4767 114.645V85.3941H80.667V114.645H72.4767ZM92.1167 114.645L82.5892 102.569L87.9798 96.8021L101.728 114.645H92.1167Z" fill="black"/>
<path d="M117.422 115.23C115.109 115.23 112.964 114.868 110.986 114.144C109.036 113.392 107.337 112.333 105.888 110.968C104.467 109.603 103.353 108.001 102.545 106.162C101.737 104.296 101.333 102.248 101.333 100.02C101.333 97.791 101.737 95.7574 102.545 93.9187C103.353 92.0522 104.467 90.4365 105.888 89.0714C107.337 87.7064 109.036 86.6617 110.986 85.9374C112.964 85.1852 115.109 84.8091 117.422 84.8091C120.124 84.8091 122.534 85.2827 124.651 86.2299C126.796 87.1771 128.579 88.5421 130 90.325L124.734 95.0888C123.787 93.9745 122.742 93.1248 121.6 92.5398C120.486 91.9547 119.232 91.6622 117.839 91.6622C116.642 91.6622 115.541 91.8572 114.538 92.2473C113.535 92.6373 112.672 93.2084 111.947 93.9605C111.251 94.6848 110.694 95.5624 110.276 96.5931C109.886 97.6239 109.691 98.7661 109.691 100.02C109.691 101.273 109.886 102.416 110.276 103.446C110.694 104.477 111.251 105.368 111.947 106.121C112.672 106.845 113.535 107.402 114.538 107.792C115.541 108.182 116.642 108.377 117.839 108.377C119.232 108.377 120.486 108.085 121.6 107.5C122.742 106.915 123.787 106.065 124.734 104.951L130 109.714C128.579 111.469 126.796 112.834 124.651 113.81C122.534 114.757 120.124 115.23 117.422 115.23ZM129.689 114.645L142.601 85.3941H150.75L163.704 114.645H155.095L144.983 89.4475H148.242L138.13 114.645H129.689ZM136.751 108.962L138.882 102.861H153.173L155.304 108.962H136.751Z" fill="#F69526"/>
<path fill-rule="evenodd" clip-rule="evenodd" d="M73.0047 20.399C73.0047 20.1399 74.3339 17.2469 75.9583 13.9704L78.6809 8.47934C78.8224 8.19381 79.1136 8.01319 79.4323 8.01319H85.9051H92.3821C92.6988 8.01319 92.9885 8.1916 93.131 8.47442L96.6629 15.482C98.7336 19.5901 100.528 23.0512 100.651 23.1738C100.773 23.2965 102.278 26.206 103.995 29.6394C105.712 33.0728 107.216 35.9823 107.339 36.105C107.462 36.2276 108.565 38.3345 109.792 40.7869C110.921 43.0462 111.994 45.1427 112.156 45.4589C112.171 45.4873 112.186 45.5133 112.204 45.5398L112.561 46.0749C112.585 46.1109 112.605 46.1463 112.623 46.1856C112.909 46.8016 115.441 52.2521 115.804 52.6033C115.931 52.7259 117.3 55.3345 118.846 58.4C120.392 61.4656 122.339 65.1777 123.172 66.6492C124.005 68.1207 124.696 69.5756 124.708 69.882V69.882C124.72 70.1863 124.476 70.4394 124.171 70.4394H116.346H107.565L106.315 67.7448C106.309 67.7321 106.304 67.7202 106.297 67.7078C106.214 67.5492 105.596 66.3599 104.938 64.9017C104.23 63.3339 102.926 60.6389 102.04 58.9124L100.658 56.2223C100.516 55.946 100.233 55.7707 99.9229 55.7667L78.1326 55.4874C59.9875 55.2545 56.0442 55.3425 55.7805 54.4005C55.6762 54.0279 56.1478 53.494 56.5438 52.7152L57.3907 51.0498C57.5323 50.7713 57.8169 50.5946 58.1293 50.5913L68.6572 50.4777L78.8636 50.3672C79.3232 50.3622 79.6932 49.9882 79.6932 49.5285V49.0285V48.5371C79.6932 48.0739 79.3177 47.6984 78.8545 47.6984H69.6604H60.2042C59.8858 47.6984 59.6277 47.4403 59.6277 47.1218V47.1218C59.6277 46.8048 61.331 43.1431 63.4134 38.9841C65.4077 35.0005 67.0592 31.2329 67.1945 30.9232C67.2013 30.9078 67.2073 30.8952 67.2149 30.8802L67.5279 30.265C67.5384 30.2442 67.5494 30.2247 67.5616 30.2048C67.7236 29.9408 68.9595 27.9128 70.0961 25.6263C71.3152 23.1738 72.4683 21.1004 72.6587 21.0188C72.8491 20.9367 73.0047 20.6581 73.0047 20.399ZM81.2102 35.4829C82.0444 33.7404 83.4423 30.7599 84.3163 28.8591C85.1907 26.9582 86.0629 25.4127 86.2551 25.4243C86.6603 25.4484 89.5289 31.4259 89.7307 31.8476C89.7388 31.8644 89.7465 31.8791 89.7557 31.8954L90.3671 32.982C90.3856 33.0149 90.4017 33.0486 90.4157 33.0836C90.6245 33.6066 92.3675 37.9462 93.9897 41.1637C94.465 42.1063 94.8539 42.9589 94.8539 43.0588C94.8539 43.1582 90.9179 43.2394 86.1075 43.2394H78.6752C78.1106 43.2394 77.7718 42.6125 78.0813 42.1402V42.1402C78.4553 41.5695 78.9856 40.5848 79.0432 40.4773C79.0469 40.4706 79.0501 40.4643 79.0535 40.4575L79.4677 39.629L79.6731 39.2034C79.6865 39.1756 79.6981 39.1479 79.7085 39.1188C79.8135 38.8251 80.4487 37.0734 81.2102 35.4829ZM48.8488 60.7121C48.8681 60.6572 48.8931 60.6045 48.9233 60.5547L49.4893 59.6232C49.533 59.5513 49.5656 59.4733 49.5861 59.3917L49.6756 59.0347C49.7692 58.6616 50.1045 58.4 50.4891 58.4H62.8056H71.1371C71.6823 58.4 72.0825 58.9119 71.9511 59.4409L71.9051 59.6262C71.7655 60.1892 71.4304 60.7811 71.3236 60.9611C71.3016 60.9981 71.2818 61.036 71.2648 61.0756L70.7953 62.1711C70.7094 62.3717 70.5436 62.515 70.3271 62.5421C69.6062 62.6325 67.3939 62.8003 60.7995 62.8399L49.3224 62.8889C48.8578 62.8909 48.4801 62.5148 48.4801 62.0502V61.9043C48.4801 61.8096 48.4962 61.7156 48.5276 61.6262L48.8488 60.7121ZM40.351 70.4394C39.729 70.4394 39.3234 69.786 39.5993 69.2286L40.2062 68.0025L41.182 66.0321C41.3234 65.7466 41.6143 65.5659 41.9328 65.5656L58.9958 65.5501C64.1665 65.5416 68.5091 65.6464 68.646 65.7833C68.9566 66.0938 67.8431 68.3313 67.7343 68.5477C67.7281 68.56 67.723 68.5708 67.7174 68.5834L66.8871 70.4394H56.4898H40.351Z" fill="black"/>
<path fill-rule="evenodd" clip-rule="evenodd" d="M107.152 0.374013C107.021 0.587154 105.906 0.894826 104.673 1.05847C103.597 1.20118 102.691 1.65043 102.48 1.76098C102.449 1.7772 102.42 1.79611 102.392 1.81681L101.897 2.1812C101.866 2.20469 101.833 2.22537 101.799 2.24507C101.507 2.41262 100.003 3.32298 98.4492 5.15051L97.5618 6.19397C97.4329 6.34563 97.362 6.53822 97.362 6.7373V9.26082C97.362 10.8188 97.5502 12.2287 97.7803 12.3942C98.2958 12.7656 98.9718 13.8795 100.264 16.4853C100.81 17.5889 101.372 18.5922 101.512 18.7148C101.651 18.8374 102.139 19.7404 102.595 20.7214C103.051 21.7024 103.595 22.806 103.804 23.1738C104.013 23.5417 104.643 24.7456 105.204 25.8492C105.765 26.9528 106.324 27.9561 106.447 28.0787C106.57 28.2014 107.373 29.6938 108.231 31.3958L109.618 34.1453C109.728 34.3638 109.928 34.5232 110.166 34.5818L111.352 34.8747C112.211 35.0865 113.567 35.5605 114.367 35.9284C115.167 36.2963 116.07 36.4492 116.373 36.2677C117.067 35.8544 121.658 32.4669 122.33 31.8734L122.371 31.8371C122.644 31.5959 122.73 31.206 122.584 30.8722L122.339 30.3127C122.069 29.6974 121.729 29.0932 121.583 28.9705C121.437 28.8479 120.841 27.5437 120.259 26.0722C119.676 24.6007 119.04 23.2064 118.843 22.9732C118.667 22.7637 118.334 21.986 118.269 21.8328C118.262 21.815 118.254 21.7978 118.245 21.7806L117.873 21.0358C117.85 20.9905 117.823 20.9476 117.796 20.9047C117.727 20.7929 117.595 20.5459 117.595 20.2755V20.2755C117.595 19.9061 117.894 19.6066 118.264 19.6066H119.979C126.915 19.6066 133.334 7.81209 127.596 5.61068C126.134 5.04929 125.765 5.75961 125.794 9.07934C125.823 12.4784 125.671 12.8187 123.404 14.3856C121.728 15.5444 114.66 13.4225 114.133 13.262C114.11 13.2551 114.091 13.248 114.069 13.239L113.278 12.9181L108.619 11.3247C108.615 11.3233 108.611 11.322 108.607 11.3205C108.495 11.2806 106.802 10.6854 105.673 10.6819C99.5728 10.6623 100.857 4.77684 107.303 3.21663C109.194 2.75869 109.979 1.68808 109.154 0.693278C108.513 -0.0790225 107.529 -0.23598 107.152 0.374013ZM111.077 22.282C109.279 22.282 108.268 21.367 108.245 19.7181C108.237 19.1665 108.3 18.7148 108.385 18.7148C109.1 18.7148 111.406 20.2915 111.987 21.178V21.178C112.298 21.6522 111.957 22.282 111.39 22.282H111.077Z" fill="#F69526"/>
<path fill-rule="evenodd" clip-rule="evenodd" d="M62.0615 5.38626C63.1149 6.5139 63.4147 6.59106 67.5789 6.80368C70.917 6.97393 72.4632 7.25448 73.9716 7.96361C75.0661 8.47816 75.9614 8.97426 75.9614 9.06609C75.9614 9.15793 73.8684 13.4161 71.3099 18.5288L66.6585 27.8243L65.4696 25.9141C64.8154 24.8636 63.7142 23.6005 63.0222 23.1078C62.3303 22.615 60.9481 22.0619 59.9513 21.8782C58.9545 21.695 56.2916 21.7222 54.0342 21.939C51.7764 22.1563 49.8658 22.2619 49.7878 22.1747C49.7098 22.0875 49.5207 21.6069 49.3672 21.1066C49.189 20.5271 49.2842 20.1324 49.6293 20.0184C49.9275 19.9203 49.6796 19.914 49.0791 20.0041C48.2848 20.1241 47.8118 19.9014 47.3447 19.1885C46.7374 18.2613 46.7785 18.1246 48.1066 16.6753C48.8791 15.8324 49.8956 14.9371 50.3653 14.6859C50.9549 14.3701 51.2195 13.8077 51.2195 12.8688C51.2195 11.7386 51.6279 11.1494 53.6417 9.37726C54.9736 8.20474 56.4363 7.12532 56.8917 6.97855C57.3467 6.83177 58.0411 6.14529 58.4337 5.45293C58.8798 4.66664 59.4862 4.19361 60.0477 4.19361C60.5426 4.19361 61.4488 4.73038 62.0615 5.38626ZM61.5297 6.49587C62.0036 7.21967 62.1064 7.73255 61.8317 8.00722C61.5574 8.28148 61.2341 8.20306 60.8793 7.77574C60.5841 7.42013 60.0687 7.12909 59.7341 7.12909C59.3818 7.12909 59.1847 6.82213 59.2661 6.39984C59.3432 5.99893 59.7227 5.61019 60.109 5.53555C60.5065 5.45922 61.1234 5.87648 61.5297 6.49587ZM55.6227 6.07484C55.1614 6.40277 54.454 6.99574 54.0501 7.39287C53.3553 8.076 53.3163 8.07055 53.3163 7.28635C53.3163 6.83093 53.5427 6.23168 53.8195 5.9549C54.0963 5.67813 54.8037 5.45755 55.3921 5.46509C56.4308 5.47809 56.4375 5.49529 55.6227 6.07484ZM53.6517 12.6646C53.9285 12.9414 54.155 13.5075 54.155 13.9226C54.155 14.3378 53.8719 14.6775 53.5259 14.6775C53.1066 14.6775 52.8969 14.2581 52.8969 13.4194C52.8969 12.7275 52.9535 12.1614 53.0227 12.1614C53.0919 12.1614 53.375 12.3878 53.6517 12.6646ZM61.578 24.3059C62.3165 24.7558 63.2076 25.6788 63.5582 26.3569C63.9087 27.0346 64.3164 28.3447 64.464 29.2677C64.6162 30.22 64.5143 31.6073 64.2283 32.4736L63.7242 34.0009L61.2207 33.7175C58.9486 33.4604 58.6576 33.5195 58.073 34.354C57.6289 34.9881 57.0833 35.2338 56.3159 35.1449C55.304 35.0279 55.2034 34.8526 55.2034 33.2096V31.4026L54.2619 32.5806L53.3205 33.7581L53.3184 32.4099C53.3171 31.5125 53.7302 30.5899 54.5542 29.6514C55.2352 28.876 56.5126 28.026 57.3928 27.7622C58.2735 27.4984 59.3424 27.0275 59.7689 26.7159C60.4998 26.1812 60.5048 26.0735 59.8548 24.8166C59.3378 23.8169 59.2996 23.4844 59.7005 23.4856C59.9949 23.4865 60.8399 23.8555 61.578 24.3059Z" fill="#F69526"/>
<path d="M-0.00945455 129.355L2.98764 122.737H3.92364L6.93018 129.355H5.93745L3.26182 123.266H3.64L0.964364 129.355H-0.00945455ZM1.26691 127.7L1.52218 126.944H5.24727L5.52145 127.7H1.26691ZM7.91744 129.355V122.737H8.69272L13.0702 128.173H12.6636V122.737H13.6091V129.355H12.8338L8.45635 123.919H8.8629V129.355H7.91744ZM17.1269 129.355L20.124 122.737H21.06L24.0665 129.355H23.0738L20.3982 123.266H20.7764L18.1007 129.355H17.1269ZM18.4033 127.7L18.6585 126.944H22.3836L22.6578 127.7H18.4033ZM25.0538 129.355V122.737H25.9993V129.355H25.0538ZM27.9807 129.355V122.737H30.7697C31.4757 122.737 32.0965 122.875 32.6323 123.153C33.1743 123.43 33.5935 123.818 33.8897 124.316C34.1923 124.814 34.3436 125.39 34.3436 126.046C34.3436 126.701 34.1923 127.278 33.8897 127.776C33.5935 128.274 33.1743 128.662 32.6323 128.939C32.0965 129.216 31.4757 129.355 30.7697 129.355H27.9807ZM28.9261 128.532H30.713C31.2614 128.532 31.7341 128.428 32.1312 128.22C32.5346 128.012 32.8466 127.722 33.0672 127.351C33.2878 126.972 33.3981 126.537 33.3981 126.046C33.3981 125.548 33.2878 125.113 33.0672 124.741C32.8466 124.369 32.5346 124.079 32.1312 123.871C31.7341 123.663 31.2614 123.559 30.713 123.559H28.9261V128.532ZM39.645 129.355V123.559H37.3759V122.737H42.8501V123.559H40.581V129.355H39.645ZM46.7751 129.431C46.2709 129.431 45.8013 129.345 45.3664 129.175C44.9378 129.005 44.5659 128.769 44.2507 128.466C43.9356 128.157 43.6898 127.798 43.5133 127.388C43.3368 126.979 43.2486 126.531 43.2486 126.046C43.2486 125.56 43.3368 125.113 43.5133 124.703C43.6898 124.294 43.9356 123.937 44.2507 123.635C44.5659 123.326 44.9378 123.087 45.3664 122.916C45.795 122.746 46.2646 122.661 46.7751 122.661C47.2793 122.661 47.7426 122.746 48.1649 122.916C48.5935 123.08 48.9654 123.317 49.2806 123.625C49.602 123.928 49.8478 124.284 50.018 124.694C50.1945 125.104 50.2827 125.554 50.2827 126.046C50.2827 126.537 50.1945 126.988 50.018 127.398C49.8478 127.808 49.602 128.167 49.2806 128.476C48.9654 128.778 48.5935 129.015 48.1649 129.185C47.7426 129.349 47.2793 129.431 46.7751 129.431ZM46.7751 128.589C47.1407 128.589 47.4779 128.526 47.7867 128.4C48.1019 128.274 48.3729 128.097 48.5998 127.871C48.833 127.637 49.0127 127.366 49.1387 127.057C49.2711 126.749 49.3373 126.411 49.3373 126.046C49.3373 125.68 49.2711 125.343 49.1387 125.034C49.0127 124.725 48.833 124.457 48.5998 124.231C48.3729 123.997 48.1019 123.818 47.7867 123.692C47.4779 123.566 47.1407 123.503 46.7751 123.503C46.4032 123.503 46.0597 123.566 45.7446 123.692C45.4357 123.818 45.1647 123.997 44.9315 124.231C44.6983 124.457 44.5155 124.725 44.3831 125.034C44.257 125.343 44.194 125.68 44.194 126.046C44.194 126.411 44.257 126.749 44.3831 127.057C44.5155 127.366 44.6983 127.637 44.9315 127.871C45.1647 128.097 45.4357 128.274 45.7446 128.4C46.0597 128.526 46.4032 128.589 46.7751 128.589ZM55.8647 129.355V126.821L56.0821 127.407L53.2363 122.737H54.248L56.64 126.679H56.0916L58.4931 122.737H59.4291L56.5927 127.407L56.8007 126.821V129.355H55.8647ZM63.0897 129.431C62.5855 129.431 62.1159 129.345 61.681 129.175C61.2524 129.005 60.8805 128.769 60.5654 128.466C60.2502 128.157 60.0044 127.798 59.8279 127.388C59.6514 126.979 59.5632 126.531 59.5632 126.046C59.5632 125.56 59.6514 125.113 59.8279 124.703C60.0044 124.294 60.2502 123.937 60.5654 123.635C60.8805 123.326 61.2524 123.087 61.681 122.916C62.1096 122.746 62.5792 122.661 63.0897 122.661C63.594 122.661 64.0573 122.746 64.4796 122.916C64.9082 123.08 65.28 123.317 65.5952 123.625C65.9166 123.928 66.1625 124.284 66.3326 124.694C66.5091 125.104 66.5974 125.554 66.5974 126.046C66.5974 126.537 66.5091 126.988 66.3326 127.398C66.1625 127.808 65.9166 128.167 65.5952 128.476C65.28 128.778 64.9082 129.015 64.4796 129.185C64.0573 129.349 63.594 129.431 63.0897 129.431ZM63.0897 128.589C63.4553 128.589 63.7925 128.526 64.1014 128.4C64.4165 128.274 64.6876 128.097 64.9145 127.871C65.1477 127.637 65.3273 127.366 65.4534 127.057C65.5857 126.749 65.6519 126.411 65.6519 126.046C65.6519 125.68 65.5857 125.343 65.4534 125.034C65.3273 124.725 65.1477 124.457 64.9145 124.231C64.6876 123.997 64.4165 123.818 64.1014 123.692C63.7925 123.566 63.4553 123.503 63.0897 123.503C62.7179 123.503 62.3743 123.566 62.0592 123.692C61.7503 123.818 61.4793 123.997 61.2461 124.231C61.0129 124.457 60.8301 124.725 60.6977 125.034C60.5717 125.343 60.5086 125.68 60.5086 126.046C60.5086 126.411 60.5717 126.749 60.6977 127.057C60.8301 127.366 61.0129 127.637 61.2461 127.871C61.4793 128.097 61.7503 128.274 62.0592 128.4C62.3743 128.526 62.7179 128.589 63.0897 128.589ZM70.7843 129.431C69.9144 129.431 69.2306 129.182 68.7326 128.684C68.2347 128.186 67.9857 127.458 67.9857 126.5V122.737H68.9312V126.462C68.9312 127.199 69.0919 127.738 69.4133 128.079C69.7411 128.419 70.2012 128.589 70.7937 128.589C71.3925 128.589 71.8526 128.419 72.1741 128.079C72.5018 127.738 72.6657 127.199 72.6657 126.462V122.737H73.5828V126.5C73.5828 127.458 73.3338 128.186 72.8359 128.684C72.3443 129.182 71.6604 129.431 70.7843 129.431ZM75.5211 129.355V122.737H78.1022C78.6821 122.737 79.1769 122.828 79.5866 123.011C79.9963 123.194 80.3114 123.458 80.532 123.805C80.7526 124.152 80.8629 124.565 80.8629 125.044C80.8629 125.523 80.7526 125.936 80.532 126.282C80.3114 126.623 79.9963 126.884 79.5866 127.067C79.1769 127.25 78.6821 127.341 78.1022 127.341H76.0411L76.4666 126.906V129.355H75.5211ZM79.9459 129.355L78.2629 126.953H79.2746L80.9764 129.355H79.9459ZM76.4666 127.001L76.0411 126.537H78.0739C78.6789 126.537 79.1359 126.408 79.4448 126.15C79.7599 125.885 79.9175 125.516 79.9175 125.044C79.9175 124.571 79.7599 124.205 79.4448 123.947C79.1359 123.688 78.6789 123.559 78.0739 123.559H76.0411L76.4666 123.087V127.001ZM86.2437 129.355V123.559H83.9746V122.737H89.4488V123.559H87.1797V129.355H86.2437ZM90.4785 129.355V122.737H93.0596C93.6395 122.737 94.1343 122.828 94.544 123.011C94.9537 123.194 95.2688 123.458 95.4894 123.805C95.71 124.152 95.8203 124.565 95.8203 125.044C95.8203 125.523 95.71 125.936 95.4894 126.282C95.2688 126.623 94.9537 126.884 94.544 127.067C94.1343 127.25 93.6395 127.341 93.0596 127.341H90.9985L91.424 126.906V129.355H90.4785ZM94.9032 129.355L93.2203 126.953H94.232L95.9338 129.355H94.9032ZM91.424 127.001L90.9985 126.537H93.0312C93.6363 126.537 94.0933 126.408 94.4022 126.15C94.7173 125.885 94.8749 125.516 94.8749 125.044C94.8749 124.571 94.7173 124.205 94.4022 123.947C94.0933 123.688 93.6363 123.559 93.0312 123.559H90.9985L91.424 123.087V127.001ZM96.3457 129.355L99.3427 122.737H100.279L103.285 129.355H102.293L99.6169 123.266H99.9951L97.3195 129.355H96.3457ZM97.622 127.7L97.8773 126.944H101.602L101.877 127.7H97.622ZM104.273 129.355V122.737H107.062C107.768 122.737 108.388 122.875 108.924 123.153C109.466 123.43 109.885 123.818 110.182 124.316C110.484 124.814 110.635 125.39 110.635 126.046C110.635 126.701 110.484 127.278 110.182 127.776C109.885 128.274 109.466 128.662 108.924 128.939C108.388 129.216 107.768 129.355 107.062 129.355H104.273ZM105.218 128.532H107.005C107.553 128.532 108.026 128.428 108.423 128.22C108.826 128.012 109.138 127.722 109.359 127.351C109.58 126.972 109.69 126.537 109.69 126.046C109.69 125.548 109.58 125.113 109.359 124.741C109.138 124.369 108.826 124.079 108.423 123.871C108.026 123.663 107.553 123.559 107.005 123.559H105.218V128.532ZM112.084 129.355V122.737H113.029V129.355H112.084ZM115.01 129.355V122.737H115.786L120.163 128.173H119.757V122.737H120.702V129.355H119.927L115.549 123.919H115.956V129.355H115.01ZM125.671 129.431C125.16 129.431 124.691 129.349 124.262 129.185C123.833 129.015 123.461 128.778 123.146 128.476C122.831 128.167 122.585 127.808 122.409 127.398C122.232 126.988 122.144 126.537 122.144 126.046C122.144 125.554 122.232 125.104 122.409 124.694C122.585 124.284 122.831 123.928 123.146 123.625C123.468 123.317 123.843 123.08 124.271 122.916C124.7 122.746 125.173 122.661 125.69 122.661C126.213 122.661 126.692 122.746 127.127 122.916C127.562 123.087 127.93 123.342 128.233 123.682L127.647 124.268C127.376 124.004 127.079 123.811 126.758 123.692C126.443 123.566 126.099 123.503 125.727 123.503C125.349 123.503 124.996 123.566 124.669 123.692C124.347 123.818 124.067 123.994 123.827 124.221C123.594 124.448 123.411 124.719 123.279 125.034C123.153 125.343 123.09 125.68 123.09 126.046C123.09 126.405 123.153 126.742 123.279 127.057C123.411 127.366 123.594 127.637 123.827 127.871C124.067 128.097 124.347 128.274 124.669 128.4C124.99 128.526 125.34 128.589 125.718 128.589C126.071 128.589 126.408 128.536 126.73 128.428C127.057 128.315 127.36 128.129 127.637 127.871L128.176 128.589C127.848 128.866 127.464 129.078 127.023 129.223C126.588 129.361 126.137 129.431 125.671 129.431ZM127.269 128.466V126.008H128.176V128.589L127.269 128.466ZM133.376 129.431C132.986 129.431 132.62 129.349 132.28 129.185C131.939 129.021 131.662 128.784 131.448 128.476L131.996 127.833C132.179 128.085 132.384 128.28 132.61 128.419C132.844 128.551 133.099 128.617 133.376 128.617C134.133 128.617 134.511 128.17 134.511 127.275V123.559H132.119V122.737H135.447V127.228C135.447 127.965 135.27 128.517 134.917 128.882C134.571 129.248 134.057 129.431 133.376 129.431ZM140.36 129.431C139.856 129.431 139.387 129.345 138.952 129.175C138.523 129.005 138.151 128.769 137.836 128.466C137.521 128.157 137.275 127.798 137.099 127.388C136.922 126.979 136.834 126.531 136.834 126.046C136.834 125.56 136.922 125.113 137.099 124.703C137.275 124.294 137.521 123.937 137.836 123.635C138.151 123.326 138.523 123.087 138.952 122.916C139.38 122.746 139.85 122.661 140.36 122.661C140.865 122.661 141.328 122.746 141.75 122.916C142.179 123.08 142.551 123.317 142.866 123.625C143.187 123.928 143.433 124.284 143.603 124.694C143.78 125.104 143.868 125.554 143.868 126.046C143.868 126.537 143.78 126.988 143.603 127.398C143.433 127.808 143.187 128.167 142.866 128.476C142.551 128.778 142.179 129.015 141.75 129.185C141.328 129.349 140.865 129.431 140.36 129.431ZM140.36 128.589C140.726 128.589 141.063 128.526 141.372 128.4C141.687 128.274 141.958 128.097 142.185 127.871C142.418 127.637 142.598 127.366 142.724 127.057C142.856 126.749 142.923 126.411 142.923 126.046C142.923 125.68 142.856 125.343 142.724 125.034C142.598 124.725 142.418 124.457 142.185 124.231C141.958 123.997 141.687 123.818 141.372 123.692C141.063 123.566 140.726 123.503 140.36 123.503C139.988 123.503 139.645 123.566 139.33 123.692C139.021 123.818 138.75 123.997 138.517 124.231C138.283 124.457 138.101 124.725 137.968 125.034C137.842 125.343 137.779 125.68 137.779 126.046C137.779 126.411 137.842 126.749 137.968 127.057C138.101 127.366 138.283 127.637 138.517 127.871C138.75 128.097 139.021 128.274 139.33 128.4C139.645 128.526 139.988 128.589 140.36 128.589ZM148.055 129.431C147.185 129.431 146.501 129.182 146.003 128.684C145.505 128.186 145.256 127.458 145.256 126.5V122.737H146.202V126.462C146.202 127.199 146.362 127.738 146.684 128.079C147.012 128.419 147.472 128.589 148.064 128.589C148.663 128.589 149.123 128.419 149.445 128.079C149.772 127.738 149.936 127.199 149.936 126.462V122.737H150.853V126.5C150.853 127.458 150.604 128.186 150.106 128.684C149.615 129.182 148.931 129.431 148.055 129.431ZM152.792 129.355V122.737H155.373C155.953 122.737 156.447 122.828 156.857 123.011C157.267 123.194 157.582 123.458 157.803 123.805C158.023 124.152 158.134 124.565 158.134 125.044C158.134 125.523 158.023 125.936 157.803 126.282C157.582 126.623 157.267 126.884 156.857 127.067C156.447 127.25 155.953 127.341 155.373 127.341H153.312L153.737 126.906V129.355H152.792ZM157.216 129.355L155.534 126.953H156.545L158.247 129.355H157.216ZM153.737 127.001L153.312 126.537H155.344C155.95 126.537 156.407 126.408 156.715 126.15C157.031 125.885 157.188 125.516 157.188 125.044C157.188 124.571 157.031 124.205 156.715 123.947C156.407 123.688 155.95 123.559 155.344 123.559H153.312L153.737 123.087V127.001ZM159.661 129.355V122.737H160.436L164.814 128.173H164.407V122.737H165.353V129.355H164.577L160.2 123.919H160.607V129.355H159.661ZM168.194 125.592H171.598V126.396H168.194V125.592ZM168.279 128.532H172.137V129.355H167.334V122.737H172.004V123.559H168.279V128.532ZM175.191 129.355V126.821L175.409 127.407L172.563 122.737H173.575L175.967 126.679H175.418L177.82 122.737H178.756L175.919 127.407L176.127 126.821V129.355H175.191Z" fill="black"/>
</svg>
